<?xml version="1.0" encoding="UTF-8"?>
<svg id="Logo_Artwork" xmlns="http://www.w3.org/2000/svg" version="1.1" viewBox="0 0 33.3 30.2">
  <!-- Generator: Adobe Illustrator 29.2.1, SVG Export Plug-In . SVG Version: 2.1.0 Build 116)  -->
  <defs>
    <style>
      .st0 {
        fill: #1d4b87;
      }
    </style>
  </defs>
  <path class="st0" d="M25.2,23.1v7H0v-7h25.2Z"/>
  <path class="st0" d="M17.1,6.4c3.8,0,6.5.4,8.1,1.1,1.7.7,2.5,1.9,2.5,3.4s-.8,2.7-2.5,3.4c-1.6.7-4.3,1.1-8.1,1.1v6.4h0c5.3,0,9.4-.9,12.1-2.8,1.3-.9,2.3-2,3-3.3.7-1.3,1.1-2.9,1.1-4.8s-.4-3.5-1.1-4.8c-.7-1.4-1.7-2.5-3-3.4-2.7-1.8-6.8-2.7-12.1-2.7h0v6.4Z"/>
  <path class="st0" d="M0,6.4c3.8,0,6.5.4,8.1,1.1,1.7.7,2.5,1.9,2.5,3.4s-.8,2.7-2.5,3.4C6.5,15,3.8,15.4,0,15.4v6.4h0c5.3,0,9.4-.9,12.1-2.8,1.3-.9,2.3-2,3-3.3.7-1.3,1.1-2.9,1.1-4.8s-.4-3.5-1.1-4.8c-.7-1.4-1.7-2.5-3-3.4C9.4.9,5.3,0,0,0H0v6.4Z"/>
</svg>