<?xml version="1.0" encoding="UTF-8"?>
<svg id="Logo_Artwork" xmlns="http://www.w3.org/2000/svg" version="1.1" viewBox="0 0 208.2 24.7">
  <!-- Generator: Adobe Illustrator 29.2.1, SVG Export Plug-In . SVG Version: 2.1.0 Build 116)  -->
  <defs>
    <style>
      .st0 {
        fill: #004980;
      }
    </style>
  </defs>
  <g>
    <path class="st0" d="M20.6,18.9v5.7H0v-5.7h20.6Z"/>
    <path class="st0" d="M14,5.2c3.1,0,5.3.3,6.6.9,1.4.6,2.1,1.5,2.1,2.8s-.7,2.2-2.1,2.8c-1.3.6-3.5.9-6.6.9v5.2h0c4.4,0,7.7-.8,9.9-2.3,1.1-.7,1.9-1.6,2.5-2.7.6-1.1.9-2.4.9-3.9s-.3-2.8-.9-3.9c-.6-1.1-1.4-2-2.5-2.7-2.2-1.5-5.5-2.2-9.9-2.2h0v5.2Z"/>
    <path class="st0" d="M0,5.2c3.1,0,5.3.3,6.6.9,1.4.6,2.1,1.5,2.1,2.8s-.7,2.2-2.1,2.8C5.3,12.3,3.1,12.6,0,12.6v5.2h0c4.4,0,7.7-.8,9.9-2.3,1.1-.7,1.9-1.6,2.5-2.7.6-1.1.9-2.4.9-3.9s-.3-2.8-.9-3.9c-.6-1.1-1.4-2-2.5-2.7C7.7.7,4.4,0,0,0H0v5.2Z"/>
  </g>
  <g>
    <path class="st0" d="M39.7,18.3c-1.3,0-2.3-.5-2.9-1.5-.6-1-1-2.5-1-4.6s.3-3.6,1-4.6c.7-1,1.6-1.5,2.9-1.5s1.2.1,1.7.4.9.6,1.2,1.1c.6,1,1,2.5,1,4.6s-.3,3.6-1,4.6c-.3.5-.7.9-1.2,1.1-.5.2-1.1.4-1.7.4ZM39.7,17c.8,0,1.4-.4,1.7-1.1.3-.7.5-1.9.5-3.7s-.2-3-.5-3.7c-.4-.7-.9-1.1-1.7-1.1s-1.4.4-1.7,1.1c-.4.8-.5,2-.5,3.7s.2,2.9.5,3.7c.4.7.9,1.1,1.7,1.1Z"/>
    <path class="st0" d="M45.9,6.4h3.4c1.3,0,2.3.3,3,.9.3.3.6.7.8,1.1.2.4.2.9.2,1.5,0,1.1-.3,2-1,2.6-.7.6-1.7.9-3,.9h-1.8v4.7h-1.6V6.4ZM49.3,12.1c.4,0,.7,0,1-.2.3-.1.5-.2.7-.4.4-.4.6-.9.6-1.6s-.2-1.2-.6-1.6c-.4-.4-1-.6-1.7-.6h-1.8v4.4h1.8Z"/>
    <path class="st0" d="M55.7,6.4h6.9v1.3h-5.4v3.5h5.1v1.3h-5.1v4.2h5.5v1.3h-7.1V6.4Z"/>
    <path class="st0" d="M64.9,6.4h2l3.9,9.6V6.4h1.5v11.7h-2l-3.9-9.6v9.6h-1.5V6.4Z"/>
    <path class="st0" d="M78.1,18.3c-.6,0-1.1,0-1.7-.2-.6-.1-1.1-.3-1.7-.5v-1.7c.6.4,1.2.7,1.7.8.5.2,1.1.3,1.6.3.8,0,1.4-.2,1.9-.5.4-.4.7-.9.7-1.5s-.2-1-.5-1.3c-.2-.2-.4-.3-.6-.4-.3-.1-.6-.2-1-.3l-.8-.2c-.5-.1-1-.3-1.4-.4s-.7-.4-1-.7c-.5-.5-.7-1.2-.7-2s.4-1.9,1.1-2.5c.3-.3.7-.5,1.2-.7.5-.2,1-.2,1.6-.2s.9,0,1.4.1c.2,0,.5.1.8.2.3,0,.5.2.8.3v1.6c-.3-.2-.5-.3-.7-.4-.2-.1-.5-.2-.7-.3-.5-.2-1-.2-1.5-.2-.7,0-1.3.2-1.8.5s-.7.8-.7,1.4,0,.5.1.7c0,.2.2.3.3.5.3.3.8.5,1.6.7l.8.2c1.1.2,1.9.6,2.4,1.2.5.5.8,1.3.8,2.2s0,1.1-.3,1.5c-.2.4-.4.8-.8,1-.7.6-1.7.9-3,.9Z"/>
    <path class="st0" d="M87.9,18.3c-1.3,0-2.3-.5-2.9-1.5-.6-1-1-2.5-1-4.6s.3-3.6,1-4.6c.7-1,1.6-1.5,2.9-1.5s1.2.1,1.7.4.9.6,1.2,1.1c.6,1,1,2.5,1,4.6s-.3,3.6-1,4.6c-.3.5-.7.9-1.2,1.1-.5.2-1.1.4-1.7.4ZM87.9,17c.8,0,1.4-.4,1.7-1.1.3-.7.5-1.9.5-3.7s-.2-3-.5-3.7c-.4-.7-.9-1.1-1.7-1.1s-1.4.4-1.7,1.1c-.4.8-.5,2-.5,3.7s.2,2.9.5,3.7c.4.7.9,1.1,1.7,1.1Z"/>
    <path class="st0" d="M97.6,18.3c-.5,0-1,0-1.5-.2-.2,0-.4-.2-.6-.3-.2-.1-.4-.3-.6-.4-.2-.1-.3-.3-.4-.5s-.2-.4-.3-.7c0-.3-.1-.6-.2-1s0-.9,0-1.6v-7.2h1.6v7.9c0,.6,0,1,0,1.2,0,.2,0,.4.2.6.2.3.4.5.7.7.3.2.7.2,1.1.2s.8,0,1.2-.2c.3-.2.6-.4.7-.7,0-.2.1-.3.2-.6,0-.2,0-.6,0-1.2v-7.9h1.6v7.2c0,.7,0,1.2,0,1.6s0,.7-.2.9c-.1.5-.4.9-.8,1.3-.2.2-.4.3-.6.4-.2.1-.4.2-.6.3-.2,0-.4.1-.7.2-.2,0-.5,0-.8,0Z"/>
    <path class="st0" d="M103.5,6.4h3.3c1.3,0,2.3.3,2.9.9.7.6,1,1.4,1,2.5s0,.8-.2,1.1c-.1.3-.3.6-.5.8-.4.5-1,.8-1.8.9.4.1.8.3,1,.6.1.2.3.4.5.6s.4.6.6,1.1l1.6,3.2h-1.7l-1.4-2.9c-.2-.4-.4-.8-.6-1-.2-.3-.3-.5-.5-.6-.2-.1-.4-.2-.6-.3-.2,0-.4,0-.7,0h-1.5v4.9h-1.6V6.4ZM106.9,11.8c.8,0,1.3-.2,1.7-.5.4-.3.6-.9.6-1.5s-.2-1.2-.6-1.6c-.2-.2-.4-.3-.7-.4-.3,0-.6-.1-1-.1h-1.7v4.1h1.7Z"/>
    <path class="st0" d="M117.9,18.3c-.7,0-1.4-.1-2-.4-.6-.3-1.1-.7-1.5-1.2-.8-1.1-1.2-2.6-1.2-4.5s.2-2.4.6-3.3.9-1.6,1.6-2.1c.7-.5,1.6-.7,2.5-.7s1,0,1.4.1c.4,0,.8.3,1.2.5v1.6c-.4-.3-.8-.6-1.2-.7-.5-.2-.9-.3-1.4-.3-1,0-1.8.4-2.3,1.2-.5.8-.8,2-.8,3.6,0,3.2,1,4.8,3.1,4.8s.9,0,1.4-.3c.4-.2.8-.4,1.2-.7v1.6c-.4.2-.8.4-1.2.5-.4.1-.9.2-1.4.2Z"/>
    <path class="st0" d="M123.3,6.4h6.9v1.3h-5.4v3.5h5.1v1.3h-5.1v4.2h5.5v1.3h-7.1V6.4Z"/>
    <path class="st0" d="M133,11.6h6.4v1.3h-6.4v-1.3Z"/>
    <path class="st0" d="M145.8,18.3c-1.3,0-2.3-.5-2.9-1.5-.6-1-1-2.5-1-4.6s.3-3.6,1-4.6c.7-1,1.6-1.5,2.9-1.5s1.2.1,1.7.4.9.6,1.2,1.1c.6,1,1,2.5,1,4.6s-.3,3.6-1,4.6c-.3.5-.7.9-1.2,1.1-.5.2-1.1.4-1.7.4ZM145.8,17c.8,0,1.4-.4,1.7-1.1.3-.7.5-1.9.5-3.7s-.2-3-.5-3.7c-.4-.7-.9-1.1-1.7-1.1s-1.4.4-1.7,1.1c-.4.8-.5,2-.5,3.7s.2,2.9.5,3.7c.4.7.9,1.1,1.7,1.1Z"/>
    <path class="st0" d="M151.7,6.4h2.4c1.8,0,3.1.5,3.9,1.4.8.9,1.3,2.4,1.3,4.4s-.4,3.5-1.3,4.4c-.8.9-2.2,1.4-3.9,1.4h-2.4V6.4ZM154.1,16.8c1.3,0,2.3-.3,2.8-1,.5-.7.8-1.8.8-3.6s-.3-2.9-.8-3.6c-.3-.3-.6-.6-1.1-.7-.5-.2-1-.2-1.7-.2h-.8v9.1h.8Z"/>
    <path class="st0" d="M164.3,12.8l-3.7-6.4h1.7l2.8,5.2,2.8-5.2h1.7l-3.7,6.4v5.2h-1.6v-5.2Z"/>
    <path class="st0" d="M174.5,18.3c-.6,0-1.1,0-1.7-.2-.6-.1-1.1-.3-1.7-.5v-1.7c.6.4,1.2.7,1.7.8.5.2,1.1.3,1.6.3.8,0,1.4-.2,1.9-.5.4-.4.7-.9.7-1.5s-.2-1-.5-1.3c-.2-.2-.4-.3-.6-.4-.3-.1-.6-.2-1-.3l-.8-.2c-.5-.1-1-.3-1.4-.4s-.7-.4-1-.7c-.5-.5-.7-1.2-.7-2s.4-1.9,1.1-2.5c.3-.3.7-.5,1.2-.7.5-.2,1-.2,1.6-.2s.9,0,1.4.1c.2,0,.5.1.8.2.3,0,.5.2.8.3v1.6c-.3-.2-.5-.3-.7-.4-.2-.1-.5-.2-.7-.3-.5-.2-1-.2-1.5-.2-.7,0-1.3.2-1.8.5s-.7.8-.7,1.4,0,.5.1.7c0,.2.2.3.3.5.3.3.8.5,1.6.7l.8.2c1.1.2,1.9.6,2.4,1.2.5.5.8,1.3.8,2.2s0,1.1-.3,1.5c-.2.4-.4.8-.8,1-.7.6-1.7.9-3,.9Z"/>
    <path class="st0" d="M184.2,18.3c-.6,0-1.1,0-1.7-.2-.6-.1-1.1-.3-1.7-.5v-1.7c.6.4,1.2.7,1.7.8.5.2,1.1.3,1.6.3.8,0,1.4-.2,1.9-.5.4-.4.7-.9.7-1.5s-.2-1-.5-1.3c-.2-.2-.4-.3-.6-.4-.3-.1-.6-.2-1-.3l-.8-.2c-.5-.1-1-.3-1.4-.4s-.7-.4-1-.7c-.5-.5-.7-1.2-.7-2s.4-1.9,1.1-2.5c.3-.3.7-.5,1.2-.7.5-.2,1-.2,1.6-.2s.9,0,1.4.1c.2,0,.5.1.8.2.3,0,.5.2.8.3v1.6c-.3-.2-.5-.3-.7-.4-.2-.1-.5-.2-.7-.3-.5-.2-1-.2-1.5-.2-.7,0-1.3.2-1.8.5s-.7.8-.7,1.4,0,.5.1.7c0,.2.2.3.3.5.3.3.8.5,1.6.7l.8.2c1.1.2,1.9.6,2.4,1.2.5.5.8,1.3.8,2.2s0,1.1-.3,1.5c-.2.4-.4.8-.8,1-.7.6-1.7.9-3,.9Z"/>
    <path class="st0" d="M190.8,6.4h6.9v1.3h-5.4v3.5h5.1v1.3h-5.1v4.2h5.5v1.3h-7.1V6.4Z"/>
    <path class="st0" d="M202.9,12.8l-3.7-6.4h1.7l2.8,5.2,2.8-5.2h1.7l-3.7,6.4v5.2h-1.6v-5.2Z"/>
  </g>
</svg>